<?xml version="1.0" encoding="utf-8"?>
<!-- Generator: Adobe Illustrator 23.0.0, SVG Export Plug-In . SVG Version: 6.00 Build 0)  -->
<svg version="1.1" id="Layer_1" xmlns="http://www.w3.org/2000/svg" xmlns:xlink="http://www.w3.org/1999/xlink" x="0px" y="0px"
	 viewBox="0 0 250 250" style="enable-background:new 0 0 250 250;" xml:space="preserve">
<style type="text/css">
	.st0{fill:#E9EAED;}
	.st1{opacity:0.43;fill:#FFFFFF;}
	.st2{fill:#A8B6C0;}
	.st3{fill:#FFFFFF;}
</style>
<rect class="st0" width="250" height="250"/>
<path class="st1" d="M126.14,70.06H80.67c-1.87,0-3.4-1.53-3.4-3.4V14.63c0-1.87,1.53-3.4,3.4-3.4h45.47c1.87,0,3.4,1.53,3.4,3.4
	v52.03C129.55,68.53,128.01,70.06,126.14,70.06z"/>
<path class="st1" d="M184.07,70.06H138.6c-1.87,0-3.4-1.53-3.4-3.4V14.63c0-1.87,1.53-3.4,3.4-3.4h45.47c1.87,0,3.4,1.53,3.4,3.4
	v52.03C187.47,68.53,185.94,70.06,184.07,70.06z"/>
<path class="st1" d="M241.99,70.06h-45.47c-1.87,0-3.4-1.53-3.4-3.4V14.63c0-1.87,1.53-3.4,3.4-3.4h45.47c1.87,0,3.4,1.53,3.4,3.4
	v52.03C245.39,68.53,243.86,70.06,241.99,70.06z"/>
<path class="st1" d="M126.14,135.4H80.67c-1.87,0-3.4-1.53-3.4-3.4V79.97c0-1.87,1.53-3.4,3.4-3.4h45.47c1.87,0,3.4,1.53,3.4,3.4
	V132C129.55,133.87,128.01,135.4,126.14,135.4z"/>
<path class="st1" d="M184.07,135.4H138.6c-1.87,0-3.4-1.53-3.4-3.4V79.97c0-1.87,1.53-3.4,3.4-3.4h45.47c1.87,0,3.4,1.53,3.4,3.4
	V132C187.47,133.87,185.94,135.4,184.07,135.4z"/>
<path class="st1" d="M241.99,135.4h-45.47c-1.87,0-3.4-1.53-3.4-3.4V79.97c0-1.87,1.53-3.4,3.4-3.4h45.47c1.87,0,3.4,1.53,3.4,3.4
	V132C245.39,133.87,243.86,135.4,241.99,135.4z"/>
<path class="st1" d="M126.14,200.74H80.67c-1.87,0-3.4-1.53-3.4-3.4V145.3c0-1.87,1.53-3.4,3.4-3.4h45.47c1.87,0,3.4,1.53,3.4,3.4
	v52.03C129.55,199.21,128.01,200.74,126.14,200.74z"/>
<path class="st1" d="M184.07,200.74H138.6c-1.87,0-3.4-1.53-3.4-3.4V145.3c0-1.87,1.53-3.4,3.4-3.4h45.47c1.87,0,3.4,1.53,3.4,3.4
	v52.03C187.47,199.21,185.94,200.74,184.07,200.74z"/>
<path class="st1" d="M241.99,200.74h-45.47c-1.87,0-3.4-1.53-3.4-3.4V145.3c0-1.87,1.53-3.4,3.4-3.4h45.47c1.87,0,3.4,1.53,3.4,3.4
	v52.03C245.39,199.21,243.86,200.74,241.99,200.74z"/>
<path class="st2" d="M68.78,239.45H8.62c-1.66,0-3-1.34-3-3V14.23c0-1.66,1.34-3,3-3h60.15c1.66,0,3,1.34,3,3v222.22
	C71.78,238.11,70.43,239.45,68.78,239.45z"/>
<path class="st3" d="M46.38,28.98c-0.01,0.11-0.1,0.19-0.21,0.17l-0.82-0.08c-2.19-0.23-4.39-0.34-6.59-0.34l-0.08,0
	c-2.2,0-4.41,0.11-6.6,0.34l-0.78,0.08c-0.11,0.01-0.2-0.07-0.21-0.17l-0.82-9.5c-0.01-0.15,0.14-0.25,0.28-0.19l4.64,2.33
	c0.08,0.04,0.18,0.02,0.23-0.05l3.13-3.87c0.08-0.09,0.22-0.09,0.3,0l3.13,3.87c0.06,0.07,0.15,0.09,0.23,0.05l4.63-2.32
	c0.13-0.07,0.29,0.04,0.28,0.19L46.38,28.98z M33.06,22.99l0.33,3.49c0.01,0.09,0.09,0.15,0.19,0.14c1.7-0.13,3.42-0.2,5.12-0.2
	c0.01,0,0.02,0,0.03,0c1.71,0,3.43,0.07,5.14,0.2c0.09,0.01,0.18-0.06,0.19-0.14l0.3-3.5c0.01-0.12-0.13-0.21-0.25-0.15l-2.7,1.24
	c-0.07,0.03-0.16,0.02-0.21-0.04l-2.36-2.67c-0.07-0.08-0.2-0.08-0.27,0l-2.36,2.67c-0.05,0.06-0.14,0.07-0.21,0.04l-2.69-1.23
	C33.19,22.78,33.05,22.87,33.06,22.99z"/>
</svg>
