<?xml version="1.0" encoding="utf-8"?>
<!-- Generator: Adobe Illustrator 23.0.0, SVG Export Plug-In . SVG Version: 6.00 Build 0)  -->
<svg version="1.1" id="Layer_1" xmlns="http://www.w3.org/2000/svg" xmlns:xlink="http://www.w3.org/1999/xlink" x="0px" y="0px"
	 viewBox="0 0 250 250" style="enable-background:new 0 0 250 250;" xml:space="preserve">
<style type="text/css">
	.st0{fill:#E9EAED;}
	.st1{fill:#A8B6C0;}
	.st2{fill:#FFFFFF;}
	.st3{fill:none;stroke:#FFFFFF;stroke-miterlimit:10;}
	.st4{opacity:0.43;fill:#FFFFFF;}
	.st5{opacity:0.13;fill:#FFFFFF;}
</style>
<rect class="st0" width="250" height="250"/>
<path class="st1" d="M242.55,171.8H7.45c-4.12,0-7.45-3.34-7.45-7.45V54.01h250v110.33C250,168.46,246.66,171.8,242.55,171.8z"/>
<path class="st2" d="M30.49,40.5c-0.01,0.14-0.13,0.24-0.27,0.22l-1.05-0.11c-2.79-0.29-5.6-0.43-8.41-0.43l-0.1,0
	c-2.81,0-5.62,0.15-8.41,0.43l-0.99,0.1c-0.14,0.01-0.26-0.09-0.27-0.22L9.95,28.39c-0.02-0.19,0.18-0.32,0.35-0.24l5.92,2.97
	c0.1,0.05,0.23,0.02,0.3-0.06l3.99-4.94c0.1-0.12,0.28-0.12,0.38,0l3.99,4.93c0.07,0.09,0.2,0.12,0.3,0.06l5.91-2.96
	c0.17-0.08,0.37,0.05,0.35,0.24L30.49,40.5z M13.5,32.87l0.42,4.46c0.01,0.11,0.12,0.19,0.24,0.18c2.17-0.17,4.36-0.26,6.53-0.26
	c0.01,0,0.02,0,0.04,0c2.18,0,4.38,0.09,6.55,0.26c0.12,0.01,0.23-0.07,0.24-0.18l0.38-4.47c0.01-0.16-0.16-0.26-0.32-0.19
	l-3.45,1.58c-0.09,0.04-0.2,0.02-0.27-0.05l-3-3.4c-0.09-0.1-0.25-0.1-0.34,0l-3,3.4c-0.06,0.07-0.18,0.1-0.27,0.05l-3.43-1.57
	C13.66,32.61,13.48,32.72,13.5,32.87z"/>
<line class="st3" x1="0" y1="54.01" x2="250" y2="54.01"/>
<path class="st2" d="M50.72,37.66h-7.65c-2.36,0-4.28-1.93-4.28-4.28v0c0-2.36,1.93-4.28,4.28-4.28h7.65c2.36,0,4.28,1.93,4.28,4.28
	v0C55,35.74,53.07,37.66,50.72,37.66z"/>
<path class="st2" d="M70.63,37.66h-7.65c-2.36,0-4.28-1.93-4.28-4.28v0c0-2.36,1.93-4.28,4.28-4.28h7.65c2.36,0,4.28,1.93,4.28,4.28
	v0C74.91,35.74,72.99,37.66,70.63,37.66z"/>
<path class="st2" d="M90.55,37.66h-7.65c-2.36,0-4.28-1.93-4.28-4.28v0c0-2.36,1.93-4.28,4.28-4.28h7.65c2.36,0,4.28,1.93,4.28,4.28
	v0C94.83,35.74,92.9,37.66,90.55,37.66z"/>
<circle class="st2" cx="218.74" cy="33.38" r="7.38"/>
<circle class="st2" cx="236.45" cy="33.38" r="7.38"/>
<circle class="st1" cx="103.68" cy="33.38" r="1.7"/>
<circle class="st1" cx="109.18" cy="33.38" r="1.7"/>
<circle class="st1" cx="114.68" cy="33.38" r="1.7"/>
<path class="st4" d="M151.06,74.79h-48.35c-1.87,0-3.4-1.53-3.4-3.4V70.7c0-1.87,1.53-3.4,3.4-3.4h48.35c1.87,0,3.4,1.53,3.4,3.4
	v0.69C154.46,73.26,152.93,74.79,151.06,74.79z"/>
<path class="st5" d="M151.06,99.64h-48.35c-1.87,0-3.4-1.53-3.4-3.4v-0.69c0-1.87,1.53-3.4,3.4-3.4h48.35c1.87,0,3.4,1.53,3.4,3.4
	v0.69C154.46,98.11,152.93,99.64,151.06,99.64z"/>
<path class="st5" d="M151.06,124.49h-48.35c-1.87,0-3.4-1.53-3.4-3.4v-0.69c0-1.87,1.53-3.4,3.4-3.4h48.35c1.87,0,3.4,1.53,3.4,3.4
	v0.69C154.46,122.96,152.93,124.49,151.06,124.49z"/>
<path class="st5" d="M151.06,149.34h-48.35c-1.87,0-3.4-1.53-3.4-3.4v-0.69c0-1.87,1.53-3.4,3.4-3.4h48.35c1.87,0,3.4,1.53,3.4,3.4
	v0.69C154.46,147.81,152.93,149.34,151.06,149.34z"/>
<path class="st4" d="M240.43,75.13h-48.35c-1.87,0-3.4-1.53-3.4-3.4v-0.69c0-1.87,1.53-3.4,3.4-3.4h48.35c1.87,0,3.4,1.53,3.4,3.4
	v0.69C243.83,73.6,242.3,75.13,240.43,75.13z"/>
<path class="st5" d="M240.43,99.98h-48.35c-1.87,0-3.4-1.53-3.4-3.4v-0.69c0-1.87,1.53-3.4,3.4-3.4h48.35c1.87,0,3.4,1.53,3.4,3.4
	v0.69C243.83,98.45,242.3,99.98,240.43,99.98z"/>
<path class="st5" d="M240.43,124.83h-48.35c-1.87,0-3.4-1.53-3.4-3.4v-0.69c0-1.87,1.53-3.4,3.4-3.4h48.35c1.87,0,3.4,1.53,3.4,3.4
	v0.69C243.83,123.3,242.3,124.83,240.43,124.83z"/>
<path class="st5" d="M240.43,149.68h-48.35c-1.87,0-3.4-1.53-3.4-3.4v-0.69c0-1.87,1.53-3.4,3.4-3.4h48.35c1.87,0,3.4,1.53,3.4,3.4
	v0.69C243.83,148.15,242.3,149.68,240.43,149.68z"/>
<path class="st4" d="M61.7,75.12H13.35c-1.87,0-3.4-1.53-3.4-3.4v-0.69c0-1.87,1.53-3.4,3.4-3.4H61.7c1.87,0,3.4,1.53,3.4,3.4v0.69
	C65.1,73.59,63.57,75.12,61.7,75.12z"/>
<path class="st5" d="M61.7,99.97H13.35c-1.87,0-3.4-1.53-3.4-3.4v-0.69c0-1.87,1.53-3.4,3.4-3.4H61.7c1.87,0,3.4,1.53,3.4,3.4v0.69
	C65.1,98.44,63.57,99.97,61.7,99.97z"/>
<path class="st5" d="M61.7,124.82H13.35c-1.87,0-3.4-1.53-3.4-3.4v-0.69c0-1.87,1.53-3.4,3.4-3.4H61.7c1.87,0,3.4,1.53,3.4,3.4v0.69
	C65.1,123.29,63.57,124.82,61.7,124.82z"/>
<path class="st5" d="M61.7,149.67H13.35c-1.87,0-3.4-1.53-3.4-3.4v-0.69c0-1.87,1.53-3.4,3.4-3.4H61.7c1.87,0,3.4,1.53,3.4,3.4v0.69
	C65.1,148.14,63.57,149.67,61.7,149.67z"/>
</svg>
