<?xml version="1.0" encoding="utf-8"?>
<!-- Generator: Adobe Illustrator 23.0.0, SVG Export Plug-In . SVG Version: 6.00 Build 0)  -->
<svg version="1.1" id="Layer_1" xmlns="http://www.w3.org/2000/svg" xmlns:xlink="http://www.w3.org/1999/xlink" x="0px" y="0px"
	 viewBox="0 0 250 250" style="enable-background:new 0 0 250 250;" xml:space="preserve">
<style type="text/css">
	.st0{fill:#E9EAED;}
	.st1{fill:#A8B6C0;}
	.st2{fill:#FFFFFF;}
	.st3{fill:none;stroke:#FFFFFF;stroke-miterlimit:10;}
	.st4{opacity:0.13;fill:#FFFFFF;}
</style>
<rect class="st0" width="250" height="250"/>
<path class="st1" d="M194.49,179.97H27.27c-4.12,0-7.45-3.34-7.45-7.45V69.64c0-4.1,3.35-7.45,7.45-7.45h167.22
	c4.1,0,7.45,3.35,7.45,7.45v102.88C201.94,176.63,198.6,179.97,194.49,179.97z"/>
<path class="st2" d="M30.49,40.5c-0.01,0.14-0.13,0.24-0.27,0.22l-1.05-0.11c-2.79-0.29-5.6-0.43-8.41-0.43l-0.1,0
	c-2.81,0-5.62,0.15-8.41,0.43l-0.99,0.1c-0.14,0.01-0.26-0.09-0.27-0.22L9.95,28.39c-0.02-0.19,0.18-0.32,0.35-0.24l5.92,2.97
	c0.1,0.05,0.23,0.02,0.3-0.06l3.99-4.94c0.1-0.12,0.28-0.12,0.38,0l3.99,4.93c0.07,0.09,0.2,0.12,0.3,0.06l5.91-2.96
	c0.17-0.08,0.37,0.05,0.35,0.24L30.49,40.5z M13.5,32.87l0.42,4.46c0.01,0.11,0.12,0.19,0.24,0.18c2.17-0.17,4.36-0.26,6.53-0.26
	c0.01,0,0.02,0,0.04,0c2.18,0,4.38,0.09,6.55,0.26c0.12,0.01,0.23-0.07,0.24-0.18l0.38-4.47c0.01-0.16-0.16-0.26-0.32-0.19
	l-3.45,1.58c-0.09,0.04-0.2,0.02-0.27-0.05l-3-3.4c-0.09-0.1-0.25-0.1-0.34,0l-3,3.4c-0.06,0.07-0.18,0.1-0.27,0.05l-3.43-1.57
	C13.66,32.61,13.48,32.72,13.5,32.87z"/>
<line class="st3" x1="0" y1="54.01" x2="250" y2="54.01"/>
<path class="st2" d="M50.72,37.66h-7.65c-2.36,0-4.28-1.93-4.28-4.28v0c0-2.36,1.93-4.28,4.28-4.28h7.65c2.36,0,4.28,1.93,4.28,4.28
	v0C55,35.74,53.07,37.66,50.72,37.66z"/>
<path class="st2" d="M70.63,37.66h-7.65c-2.36,0-4.28-1.93-4.28-4.28v0c0-2.36,1.93-4.28,4.28-4.28h7.65c2.36,0,4.28,1.93,4.28,4.28
	v0C74.91,35.74,72.99,37.66,70.63,37.66z"/>
<path class="st2" d="M90.55,37.66h-7.65c-2.36,0-4.28-1.93-4.28-4.28v0c0-2.36,1.93-4.28,4.28-4.28h7.65c2.36,0,4.28,1.93,4.28,4.28
	v0C94.83,35.74,92.9,37.66,90.55,37.66z"/>
<circle class="st2" cx="218.74" cy="33.38" r="7.38"/>
<circle class="st2" cx="236.45" cy="33.38" r="7.38"/>
<circle class="st1" cx="103.68" cy="33.38" r="1.7"/>
<circle class="st1" cx="109.18" cy="33.38" r="1.7"/>
<circle class="st1" cx="114.68" cy="33.38" r="1.7"/>
<rect x="103.39" y="58.62" transform="matrix(0.7071 0.7071 -0.7071 0.7071 77.5181 -58.3393)" class="st1" width="11.57" height="11.57"/>
<path class="st4" d="M176.75,87.54H128.4c-1.87,0-3.4-1.53-3.4-3.4v-0.69c0-1.87,1.53-3.4,3.4-3.4h48.35c1.87,0,3.4,1.53,3.4,3.4
	v0.69C180.15,86.01,178.62,87.54,176.75,87.54z"/>
<path class="st4" d="M176.75,112.4H128.4c-1.87,0-3.4-1.53-3.4-3.4v-0.69c0-1.87,1.53-3.4,3.4-3.4h48.35c1.87,0,3.4,1.53,3.4,3.4
	v0.69C180.15,110.87,178.62,112.4,176.75,112.4z"/>
<path class="st4" d="M176.75,137.25H128.4c-1.87,0-3.4-1.53-3.4-3.4v-0.69c0-1.87,1.53-3.4,3.4-3.4h48.35c1.87,0,3.4,1.53,3.4,3.4
	v0.69C180.15,135.72,178.62,137.25,176.75,137.25z"/>
<path class="st4" d="M176.75,162.1H128.4c-1.87,0-3.4-1.53-3.4-3.4v-0.69c0-1.87,1.53-3.4,3.4-3.4h48.35c1.87,0,3.4,1.53,3.4,3.4
	v0.69C180.15,160.57,178.62,162.1,176.75,162.1z"/>
<path class="st4" d="M92.79,87.54H44.44c-1.87,0-3.4-1.53-3.4-3.4v-0.69c0-1.87,1.53-3.4,3.4-3.4h48.35c1.87,0,3.4,1.53,3.4,3.4
	v0.69C96.2,86.01,94.66,87.54,92.79,87.54z"/>
<path class="st4" d="M92.79,112.4H44.44c-1.87,0-3.4-1.53-3.4-3.4v-0.69c0-1.87,1.53-3.4,3.4-3.4h48.35c1.87,0,3.4,1.53,3.4,3.4
	v0.69C96.2,110.87,94.66,112.4,92.79,112.4z"/>
<path class="st4" d="M92.79,137.25H44.44c-1.87,0-3.4-1.53-3.4-3.4v-0.69c0-1.87,1.53-3.4,3.4-3.4h48.35c1.87,0,3.4,1.53,3.4,3.4
	v0.69C96.2,135.72,94.66,137.25,92.79,137.25z"/>
<path class="st4" d="M92.79,162.1H44.44c-1.87,0-3.4-1.53-3.4-3.4v-0.69c0-1.87,1.53-3.4,3.4-3.4h48.35c1.87,0,3.4,1.53,3.4,3.4
	v0.69C96.2,160.57,94.66,162.1,92.79,162.1z"/>
</svg>
