<?xml version="1.0" encoding="utf-8"?>
<!-- Generator: Adobe Illustrator 23.0.0, SVG Export Plug-In . SVG Version: 6.00 Build 0)  -->
<svg version="1.1" id="Layer_1" xmlns="http://www.w3.org/2000/svg" xmlns:xlink="http://www.w3.org/1999/xlink" x="0px" y="0px"
	 viewBox="0 0 250 250" style="enable-background:new 0 0 250 250;" xml:space="preserve">
<style type="text/css">
	.st0{fill:#E9EAED;}
	.st1{fill:#FFFFFF;}
	.st2{opacity:0.51;fill:#EDF0F3;}
	.st3{fill:#A8B6C0;}
</style>
<rect class="st0" width="250" height="250"/>
<path class="st1" d="M213.77,222.24H38.45c-1.87,0-3.4-1.53-3.4-3.4V59.73c0-1.87,1.53-3.4,3.4-3.4h175.32c1.87,0,3.4,1.53,3.4,3.4
	v159.11C217.17,220.71,215.64,222.24,213.77,222.24z"/>
<path class="st2" d="M210.2,200.71H42.02c-1.87,0-3.4-1.53-3.4-3.4V81.26c0-1.87,1.53-3.4,3.4-3.4H210.2c1.87,0,3.4,1.53,3.4,3.4
	v116.05C213.6,199.18,212.07,200.71,210.2,200.71z"/>
<path class="st3" d="M212.72,52.7H38.6c-2.21,0-4-1.79-4-4V31.3c0-2.2,1.8-4,4-4h174.13c2.2,0,4,1.8,4,4v17.4
	C216.72,50.91,214.93,52.7,212.72,52.7z"/>
<path class="st1" d="M138.86,148.55c-0.01,0.18-0.17,0.31-0.35,0.29l-1.36-0.14c-3.64-0.37-7.29-0.56-10.94-0.56l-0.12,0
	c-3.66,0-7.31,0.19-10.95,0.56l-1.29,0.13c-0.18,0.02-0.33-0.11-0.35-0.29l-1.37-15.76c-0.02-0.25,0.24-0.42,0.46-0.31l7.71,3.87
	c0.13,0.07,0.29,0.03,0.39-0.08l5.19-6.42c0.13-0.16,0.37-0.16,0.49,0l5.19,6.42c0.09,0.12,0.25,0.15,0.39,0.08l7.69-3.86
	c0.22-0.11,0.48,0.06,0.46,0.31L138.86,148.55z M116.75,138.62l0.55,5.8c0.01,0.14,0.15,0.25,0.31,0.24
	c2.82-0.22,5.67-0.33,8.49-0.33c0.02,0,0.03,0,0.05,0c2.83,0,5.69,0.11,8.52,0.33c0.16,0.01,0.3-0.09,0.31-0.24l0.5-5.81
	c0.02-0.2-0.21-0.34-0.41-0.25l-4.49,2.06c-0.12,0.05-0.26,0.03-0.35-0.07l-3.91-4.42c-0.11-0.13-0.33-0.13-0.44,0l-3.91,4.42
	c-0.08,0.1-0.23,0.12-0.35,0.07l-4.46-2.05C116.96,138.28,116.73,138.42,116.75,138.62z"/>
<path class="st1" d="M65.55,44.43H48.19c-2.43,0-4.43-1.99-4.43-4.43v0c0-2.43,1.99-4.43,4.43-4.43h17.36
	c2.43,0,4.43,1.99,4.43,4.43v0C69.98,42.43,67.99,44.43,65.55,44.43z"/>
<path class="st1" d="M94.32,44.43H76.96c-2.43,0-4.43-1.99-4.43-4.43v0c0-2.43,1.99-4.43,4.43-4.43h17.36
	c2.43,0,4.43,1.99,4.43,4.43v0C98.74,42.43,96.75,44.43,94.32,44.43z"/>
<path class="st1" d="M123.09,44.43h-17.36c-2.43,0-4.43-1.99-4.43-4.43v0c0-2.43,1.99-4.43,4.43-4.43h17.36
	c2.43,0,4.43,1.99,4.43,4.43v0C127.51,42.43,125.52,44.43,123.09,44.43z"/>
<path class="st1" d="M207.85,44.43h-17.36c-2.43,0-4.43-1.99-4.43-4.43v0c0-2.43,1.99-4.43,4.43-4.43h17.36
	c2.43,0,4.43,1.99,4.43,4.43v0C212.28,42.43,210.29,44.43,207.85,44.43z"/>
<path class="st1" d="M178.91,44.43h-17.36c-2.43,0-4.43-1.99-4.43-4.43v0c0-2.43,1.99-4.43,4.43-4.43h17.36
	c2.43,0,4.43,1.99,4.43,4.43v0C183.34,42.43,181.35,44.43,178.91,44.43z"/>
</svg>
