<?xml version="1.0" encoding="utf-8"?>
<!-- Generator: Adobe Illustrator 23.0.0, SVG Export Plug-In . SVG Version: 6.00 Build 0)  -->
<svg version="1.1" id="Layer_1" xmlns="http://www.w3.org/2000/svg" xmlns:xlink="http://www.w3.org/1999/xlink" x="0px" y="0px"
	 viewBox="0 0 250 250" style="enable-background:new 0 0 250 250;" xml:space="preserve">
<style type="text/css">
	.st0{fill:#E9EAED;}
	.st1{fill:#FFFFFF;}
	.st2{opacity:0.51;fill:#EDF0F3;}
	.st3{fill:#A8B6C0;}
	.st4{opacity:0.56;fill:#FFFFFF;}
</style>
<rect class="st0" width="250" height="250"/>
<path class="st1" d="M225.01,205.43H49.68c-1.87,0-3.4-1.53-3.4-3.4V42.92c0-1.87,1.53-3.4,3.4-3.4h175.32c1.87,0,3.4,1.53,3.4,3.4
	v159.11C228.41,203.9,226.88,205.43,225.01,205.43z"/>
<path class="st2" d="M221.43,183.9H53.26c-1.87,0-3.4-1.53-3.4-3.4V64.45c0-1.87,1.53-3.4,3.4-3.4h168.18c1.87,0,3.4,1.53,3.4,3.4
	V180.5C224.83,182.37,223.3,183.9,221.43,183.9z"/>
<path class="st1" d="M150.09,131.74c-0.01,0.18-0.17,0.31-0.35,0.29l-1.36-0.14c-3.64-0.37-7.29-0.56-10.94-0.56l-0.12,0
	c-3.66,0-7.31,0.19-10.95,0.56l-1.29,0.13c-0.18,0.02-0.33-0.11-0.35-0.29l-1.37-15.76c-0.02-0.25,0.24-0.42,0.46-0.31l7.71,3.87
	c0.13,0.07,0.29,0.03,0.39-0.08l5.19-6.42c0.13-0.16,0.37-0.16,0.49,0l5.19,6.42c0.09,0.12,0.25,0.15,0.39,0.08l7.69-3.86
	c0.22-0.11,0.48,0.06,0.46,0.31L150.09,131.74z M127.98,121.81l0.55,5.8c0.01,0.14,0.15,0.25,0.31,0.24
	c2.82-0.22,5.67-0.33,8.49-0.33c0.02,0,0.03,0,0.05,0c2.83,0,5.69,0.11,8.52,0.33c0.16,0.01,0.3-0.09,0.31-0.24l0.5-5.81
	c0.02-0.2-0.21-0.34-0.41-0.25l-4.49,2.06c-0.12,0.05-0.26,0.03-0.35-0.07l-3.91-4.42c-0.11-0.13-0.33-0.13-0.44,0l-3.91,4.42
	c-0.08,0.1-0.23,0.12-0.35,0.07l-4.46-2.05C128.19,121.46,127.96,121.61,127.98,121.81z"/>
<circle class="st3" cx="30.32" cy="52.67" r="9.7"/>
<circle class="st3" cx="30.32" cy="75.82" r="9.7"/>
<circle class="st3" cx="30.32" cy="98.97" r="9.7"/>
<path class="st4" d="M31.95,56.13h-3.27c-1.87,0-3.4-1.53-3.4-3.4v-0.11c0-1.87,1.53-3.4,3.4-3.4h3.27c1.87,0,3.4,1.53,3.4,3.4v0.11
	C35.35,54.6,33.82,56.13,31.95,56.13z"/>
<path class="st4" d="M31.95,79.28h-3.27c-1.87,0-3.4-1.53-3.4-3.4v-0.11c0-1.87,1.53-3.4,3.4-3.4h3.27c1.87,0,3.4,1.53,3.4,3.4v0.11
	C35.35,77.75,33.82,79.28,31.95,79.28z"/>
<path class="st4" d="M31.95,102.43h-3.27c-1.87,0-3.4-1.53-3.4-3.4v-0.11c0-1.87,1.53-3.4,3.4-3.4h3.27c1.87,0,3.4,1.53,3.4,3.4
	v0.11C35.35,100.9,33.82,102.43,31.95,102.43z"/>
</svg>
