<?xml version="1.0" encoding="utf-8"?>
<!-- Generator: Adobe Illustrator 23.0.0, SVG Export Plug-In . SVG Version: 6.00 Build 0)  -->
<svg version="1.1" id="Layer_1" xmlns="http://www.w3.org/2000/svg" xmlns:xlink="http://www.w3.org/1999/xlink" x="0px" y="0px"
	 viewBox="0 0 80 40" style="enable-background:new 0 0 80 40;" xml:space="preserve">
<style type="text/css">
	.st0{fill:#FFFFFF;}
</style>
<path class="st0" d="M60.27,29.84c-0.02,0.28-0.27,0.48-0.54,0.45l-2.12-0.22c-5.65-0.58-11.33-0.87-17.01-0.87l-0.19,0
	c-5.69,0-11.37,0.3-17.02,0.88l-2.01,0.21c-0.27,0.03-0.52-0.17-0.54-0.45L18.71,5.33c-0.03-0.38,0.37-0.65,0.71-0.48l11.98,6.01
	c0.21,0.1,0.46,0.05,0.6-0.13l8.07-9.98c0.2-0.24,0.57-0.24,0.76,0l8.07,9.98c0.15,0.18,0.4,0.23,0.6,0.13l11.95-6
	c0.34-0.17,0.74,0.1,0.71,0.48L60.27,29.84z M25.89,14.41l0.85,9.02c0.02,0.22,0.24,0.39,0.48,0.37c4.39-0.34,8.81-0.52,13.2-0.52
	c0.02,0,0.05,0,0.07,0c4.41,0,8.85,0.17,13.26,0.52c0.24,0.02,0.46-0.15,0.48-0.37l0.77-9.03c0.03-0.31-0.33-0.53-0.64-0.39
	l-6.97,3.2c-0.19,0.09-0.41,0.04-0.54-0.11l-6.08-6.88c-0.18-0.2-0.51-0.2-0.69,0l-6.08,6.88c-0.13,0.15-0.36,0.19-0.54,0.11
	l-6.93-3.18C26.22,13.87,25.86,14.09,25.89,14.41z"/>
</svg>
