<?xml version="1.0" encoding="utf-8"?>
<!-- Generator: Adobe Illustrator 23.0.0, SVG Export Plug-In . SVG Version: 6.00 Build 0)  -->
<svg version="1.1" id="Layer_1" xmlns="http://www.w3.org/2000/svg" xmlns:xlink="http://www.w3.org/1999/xlink" x="0px" y="0px"
	 viewBox="0 0 500 120" style="enable-background:new 0 0 500 120;" xml:space="preserve">
<style type="text/css">
	.st0{fill:#E9EAED;}
	.st1{fill:#FFFFFF;}
	.st2{fill:#EEF0F3;}
	.st3{fill:#C8D1D8;}
	.st4{fill:#949CA8;}
</style>
<g>
	<rect class="st0" width="500" height="120"/>
</g>
<g>
	<rect class="st1" width="500" height="54.53"/>
</g>
<path class="st2" d="M305.91,38.25H194.09c-6.04,0-10.98-4.94-10.98-10.98v0c0-6.04,4.94-10.98,10.98-10.98h111.82
	c6.04,0,10.98,4.94,10.98,10.98v0C316.89,33.31,311.95,38.25,305.91,38.25z"/>
<circle class="st3" cx="481.26" cy="26.88" r="10.6"/>
<circle class="st3" cx="456.06" cy="26.88" r="10.6"/>
<circle class="st3" cx="430.87" cy="27.27" r="10.6"/>
<path class="st4" d="M62.96,36.23c-0.01,0.18-0.17,0.31-0.35,0.29l-1.36-0.14c-3.64-0.37-7.29-0.56-10.94-0.56l-0.12,0
	c-3.66,0-7.31,0.19-10.95,0.56l-1.29,0.13c-0.18,0.02-0.33-0.11-0.35-0.29l-1.37-15.76c-0.02-0.25,0.24-0.42,0.46-0.31l7.71,3.87
	c0.13,0.07,0.29,0.03,0.39-0.08l5.19-6.42c0.13-0.16,0.37-0.16,0.49,0l5.19,6.42c0.09,0.12,0.25,0.15,0.39,0.08l7.69-3.86
	c0.22-0.11,0.48,0.06,0.46,0.31L62.96,36.23z M40.85,26.3l0.55,5.8c0.01,0.14,0.15,0.25,0.31,0.24C44.53,32.11,47.37,32,50.2,32
	c0.02,0,0.03,0,0.05,0c2.83,0,5.69,0.11,8.52,0.33c0.16,0.01,0.3-0.09,0.31-0.24l0.5-5.81c0.02-0.2-0.21-0.34-0.41-0.25l-4.49,2.06
	c-0.12,0.05-0.26,0.03-0.35-0.07l-3.91-4.42c-0.11-0.13-0.33-0.13-0.44,0l-3.91,4.42c-0.08,0.1-0.23,0.12-0.35,0.07l-4.46-2.05
	C41.06,25.95,40.83,26.09,40.85,26.3z"/>
<path class="st3" d="M14.87,22.12H7.47c-0.96,0-1.75-0.79-1.75-1.75v0c0-0.96,0.79-1.75,1.75-1.75h7.39c0.96,0,1.75,0.79,1.75,1.75
	v0C16.62,21.33,15.83,22.12,14.87,22.12z"/>
<path class="st3" d="M20.31,28.71H7.47c-0.96,0-1.75-0.79-1.75-1.75v0c0-0.96,0.79-1.75,1.75-1.75h12.84c0.96,0,1.75,0.79,1.75,1.75
	v0C22.06,27.92,21.27,28.71,20.31,28.71z"/>
<path class="st3" d="M14.87,35.29H7.47c-0.96,0-1.75-0.79-1.75-1.75v0c0-0.96,0.79-1.75,1.75-1.75h7.39c0.96,0,1.75,0.79,1.75,1.75
	v0C16.62,34.51,15.83,35.29,14.87,35.29z"/>
</svg>
