<?xml version="1.0" encoding="utf-8"?>
<!-- Generator: Adobe Illustrator 23.0.0, SVG Export Plug-In . SVG Version: 6.00 Build 0)  -->
<svg version="1.1" id="Layer_1" xmlns="http://www.w3.org/2000/svg" xmlns:xlink="http://www.w3.org/1999/xlink" x="0px" y="0px"
	 viewBox="0 0 500 188.15" style="enable-background:new 0 0 500 188.15;" xml:space="preserve">
<style type="text/css">
	.st0{fill:#E9EAED;}
	.st1{fill:#FFFFFF;}
	.st2{fill:#EEF0F3;}
	.st3{fill:#949CA8;}
	.st4{opacity:0.57;fill:#EEF0F3;}
</style>
<g>
	<rect class="st0" width="500" height="188.15"/>
</g>
<g>
	<rect class="st1" width="59.68" height="188.15"/>
</g>
<circle class="st2" cx="30.04" cy="61.31" r="10.6"/>
<circle class="st2" cx="30.04" cy="86.84" r="10.6"/>
<circle class="st2" cx="30.04" cy="112.37" r="10.6"/>
<circle class="st2" cx="30.04" cy="137.9" r="10.6"/>
<path class="st3" d="M42.79,35.11c-0.01,0.18-0.17,0.31-0.35,0.29l-1.36-0.14c-3.64-0.37-7.29-0.56-10.94-0.56l-0.12,0
	c-3.66,0-7.31,0.19-10.95,0.56l-1.29,0.13c-0.18,0.02-0.33-0.11-0.35-0.29l-1.37-15.76c-0.02-0.25,0.24-0.42,0.46-0.31l7.71,3.87
	c0.13,0.07,0.29,0.03,0.39-0.08l5.19-6.42c0.13-0.16,0.37-0.16,0.49,0l5.19,6.42c0.09,0.12,0.25,0.15,0.39,0.08l7.69-3.86
	c0.22-0.11,0.48,0.06,0.46,0.31L42.79,35.11z M20.68,25.18l0.55,5.8c0.01,0.14,0.15,0.25,0.31,0.24c2.82-0.22,5.67-0.33,8.49-0.33
	c0.02,0,0.03,0,0.05,0c2.83,0,5.69,0.11,8.52,0.33c0.16,0.01,0.3-0.09,0.31-0.24l0.5-5.81c0.02-0.2-0.21-0.34-0.41-0.25l-4.49,2.06
	c-0.12,0.05-0.26,0.03-0.35-0.07l-3.91-4.42c-0.11-0.13-0.33-0.13-0.44,0L25.9,26.9c-0.08,0.1-0.23,0.12-0.35,0.07l-4.46-2.05
	C20.9,24.84,20.66,24.98,20.68,25.18z"/>
<path class="st4" d="M484.9,157.37H288.44c-1.87,0-3.4-1.53-3.4-3.4V19.71c0-1.87,1.53-3.4,3.4-3.4H484.9c1.87,0,3.4,1.53,3.4,3.4
	v134.26C488.3,155.84,486.77,157.37,484.9,157.37z"/>
<path class="st4" d="M270.77,157.37H74.32c-1.87,0-3.4-1.53-3.4-3.4V19.71c0-1.87,1.53-3.4,3.4-3.4h196.45c1.87,0,3.4,1.53,3.4,3.4
	v134.26C274.17,155.84,272.64,157.37,270.77,157.37z"/>
</svg>
