<?xml version="1.0" encoding="utf-8"?>
<!-- Generator: Adobe Illustrator 23.0.0, SVG Export Plug-In . SVG Version: 6.00 Build 0)  -->
<svg version="1.1" id="Layer_1" xmlns="http://www.w3.org/2000/svg" xmlns:xlink="http://www.w3.org/1999/xlink" x="0px" y="0px"
	 viewBox="0 0 500 120" style="enable-background:new 0 0 500 120;" xml:space="preserve">
<style type="text/css">
	.st0{fill:#E9EAED;}
	.st1{fill:#FFFFFF;}
	.st2{fill:#D7DCE0;}
	.st3{fill:#DBDBDB;}
	.st4{fill:#C8D1D8;}
	.st5{fill:#949CA8;}
</style>
<g>
	<rect class="st0" width="500" height="120"/>
</g>
<g>
	<path class="st1" d="M482.59,48.54H18.41c-6.16,0-11.15-4.99-11.15-11.15V17.14c0-6.16,4.99-11.15,11.15-11.15h464.17
		c6.16,0,11.15,4.99,11.15,11.15v20.26C493.73,43.55,488.74,48.54,482.59,48.54z"/>
</g>
<g>
	<path class="st2" d="M482.59,141H18.41c-6.16,0-11.15-4.99-11.15-11.15V63.44c0-6.16,4.99-11.15,11.15-11.15h464.17
		c6.16,0,11.15,4.99,11.15,11.15v66.42C493.73,136.01,488.74,141,482.59,141z"/>
</g>
<path class="st3" d="M35.61,31.85H23.07c-2.52,0-4.58-2.06-4.58-4.58v0c0-2.52,2.06-4.58,4.58-4.58h12.54
	c2.52,0,4.58,2.06,4.58,4.58v0C40.19,29.78,38.13,31.85,35.61,31.85z"/>
<path class="st3" d="M59.38,31.85H46.84c-2.52,0-4.58-2.06-4.58-4.58v0c0-2.52,2.06-4.58,4.58-4.58h12.54
	c2.52,0,4.58,2.06,4.58,4.58v0C63.96,29.78,61.9,31.85,59.38,31.85z"/>
<path class="st3" d="M83.36,31.85H70.81c-2.52,0-4.58-2.06-4.58-4.58v0c0-2.52,2.06-4.58,4.58-4.58h12.54
	c2.52,0,4.58,2.06,4.58,4.58v0C87.94,29.78,85.88,31.85,83.36,31.85z"/>
<circle class="st4" cx="470.66" cy="26.61" r="10.6"/>
<circle class="st4" cx="446.04" cy="26.61" r="10.6"/>
<circle class="st4" cx="421.41" cy="27" r="10.6"/>
<circle class="st4" cx="396.79" cy="26.61" r="10.6"/>
<path class="st5" d="M267.34,36.53c-0.01,0.18-0.17,0.31-0.35,0.29l-1.36-0.14c-3.64-0.37-7.29-0.56-10.94-0.56l-0.12,0
	c-3.66,0-7.31,0.19-10.95,0.56l-1.29,0.13c-0.18,0.02-0.33-0.11-0.35-0.29l-1.37-15.76c-0.02-0.25,0.24-0.42,0.46-0.31l7.71,3.87
	c0.13,0.07,0.29,0.03,0.39-0.08l5.19-6.42c0.13-0.16,0.37-0.16,0.49,0l5.19,6.42c0.09,0.12,0.25,0.15,0.39,0.08l7.69-3.86
	c0.22-0.11,0.48,0.06,0.46,0.31L267.34,36.53z M245.23,26.61l0.55,5.8c0.01,0.14,0.15,0.25,0.31,0.24c2.82-0.22,5.67-0.33,8.49-0.33
	c0.02,0,0.03,0,0.05,0c2.83,0,5.69,0.11,8.52,0.33c0.16,0.01,0.3-0.09,0.31-0.24l0.5-5.81c0.02-0.2-0.21-0.34-0.41-0.25l-4.49,2.06
	c-0.12,0.05-0.26,0.03-0.35-0.07l-3.91-4.42c-0.11-0.13-0.33-0.13-0.44,0l-3.91,4.42c-0.08,0.1-0.23,0.12-0.35,0.07l-4.46-2.05
	C245.44,26.26,245.21,26.4,245.23,26.61z"/>
</svg>
