<?xml version="1.0" encoding="utf-8"?>
<!-- Generator: Adobe Illustrator 23.0.0, SVG Export Plug-In . SVG Version: 6.00 Build 0)  -->
<svg version="1.1" id="Layer_1" xmlns="http://www.w3.org/2000/svg" xmlns:xlink="http://www.w3.org/1999/xlink" x="0px" y="0px"
	 viewBox="0 0 500 120" style="enable-background:new 0 0 500 120;" xml:space="preserve">
<style type="text/css">
	.st0{fill:#E9EAED;}
	.st1{fill:#FFFFFF;}
	.st2{fill:#DBDBDB;}
	.st3{fill:#C8D1D8;}
	.st4{fill:#949CA8;}
	.st5{fill:#C2C9D0;}
	.st6{fill: #8e99a3;}
	.st7{font-family:'MyriadPro-Regular';}
	.st8{font-size:12px;}
</style>
<g>
	<rect class="st0" width="500" height="120"/>
</g>
<g>
	<rect y="69" class="st1" width="500" height="38.81"/>
</g>
<path class="st2" d="M232.9,93.69h-12.54c-2.52,0-4.58-2.06-4.58-4.58v0c0-2.52,2.06-4.58,4.58-4.58h12.54
	c2.52,0,4.58,2.06,4.58,4.58v0C237.48,91.63,235.42,93.69,232.9,93.69z"/>
<path class="st2" d="M256.66,93.69h-12.54c-2.52,0-4.58-2.06-4.58-4.58v0c0-2.52,2.06-4.58,4.58-4.58h12.54
	c2.52,0,4.58,2.06,4.58,4.58v0C261.24,91.63,259.18,93.69,256.66,93.69z"/>
<path class="st2" d="M280.64,93.69H268.1c-2.52,0-4.58-2.06-4.58-4.58v0c0-2.52,2.06-4.58,4.58-4.58h12.54
	c2.52,0,4.58,2.06,4.58,4.58v0C285.22,91.63,283.16,93.69,280.64,93.69z"/>
<circle class="st3" cx="481.26" cy="89.11" r="10.6"/>
<circle class="st3" cx="456.63" cy="89.11" r="10.6"/>
<circle class="st3" cx="432.01" cy="89.11" r="10.6"/>
<circle class="st3" cx="407.38" cy="89.11" r="10.6"/>
<path class="st4" d="M53.59,97.07c-0.01,0.18-0.17,0.31-0.35,0.29l-1.36-0.14c-3.64-0.37-7.29-0.56-10.94-0.56l-0.12,0
	c-3.66,0-7.31,0.19-10.95,0.56l-1.29,0.13c-0.18,0.02-0.33-0.11-0.35-0.29l-1.37-15.76c-0.02-0.25,0.24-0.42,0.46-0.31l7.71,3.87
	c0.13,0.07,0.29,0.03,0.39-0.08l5.19-6.42c0.13-0.16,0.37-0.16,0.49,0l5.19,6.42c0.09,0.12,0.25,0.15,0.39,0.08l7.69-3.86
	c0.22-0.11,0.48,0.06,0.46,0.31L53.59,97.07z M31.49,87.14l0.55,5.8c0.01,0.14,0.15,0.25,0.31,0.24c2.82-0.22,5.67-0.33,8.49-0.33
	c0.02,0,0.03,0,0.05,0c2.83,0,5.69,0.11,8.52,0.33c0.16,0.01,0.3-0.09,0.31-0.24l0.5-5.81c0.02-0.2-0.21-0.34-0.41-0.25l-4.49,2.06
	c-0.12,0.05-0.26,0.03-0.35-0.07l-3.91-4.42c-0.11-0.13-0.33-0.13-0.44,0l-3.91,4.42c-0.08,0.1-0.23,0.12-0.35,0.07l-4.46-2.05
	C31.7,86.79,31.47,86.94,31.49,87.14z"/>
<rect class="st5" width="500" height="69"/>
<rect x="94.94" y="8.53" class="st6" width="310.13" height="51.94"/>
<text transform="matrix(1 0 0 1 102.8511 22.7021)" class="st1 st7 st8">Ad</text>
</svg>
