<?xml version="1.0" encoding="utf-8"?>
<!-- Generator: Adobe Illustrator 23.0.0, SVG Export Plug-In . SVG Version: 6.00 Build 0)  -->
<svg version="1.1" id="Layer_1" xmlns="http://www.w3.org/2000/svg" xmlns:xlink="http://www.w3.org/1999/xlink" x="0px" y="0px"
	 viewBox="0 0 500 120" style="enable-background:new 0 0 500 120;" xml:space="preserve">
<style type="text/css">
	.st0{fill:#E9EAED;}
	.st1{fill:url(#SVGID_1_);}
	.st2{fill:#FFFFFF;}
	.st3{fill:#DBDBDB;}
	.st4{opacity:0.64;fill:#FFFFFF;}
	.st5{opacity:0.72;fill:#FFFFFF;}
	.st6{fill:#BFBFBF;}
	.st7{fill:#949CA8;}
	.st8{fill:#C8D1D8;}
</style>
<g>
	<rect class="st0" width="500" height="120"/>
</g>
<g>
	<linearGradient id="SVGID_1_" gradientUnits="userSpaceOnUse" x1="0" y1="10.1596" x2="500" y2="10.1596">
		<stop  offset="0" style="stop-color:#FD2C56"/>
		<stop  offset="1" style="stop-color:#593BB0"/>
	</linearGradient>
	<rect class="st1" width="500" height="20.32"/>
</g>
<g>
	<rect x="0.5" y="20.1" class="st2" width="500" height="64.34"/>
</g>
<path class="st3" d="M50.05,56.46H37.51c-2.52,0-4.58-2.06-4.58-4.58v0c0-2.52,2.06-4.58,4.58-4.58h12.54
	c2.52,0,4.58,2.06,4.58,4.58v0C54.63,54.4,52.57,56.46,50.05,56.46z"/>
<path class="st3" d="M73.93,56.46H61.38c-2.52,0-4.58-2.06-4.58-4.58v0c0-2.52,2.06-4.58,4.58-4.58h12.54
	c2.52,0,4.58,2.06,4.58,4.58v0C78.51,54.4,76.45,56.46,73.93,56.46z"/>
<path class="st3" d="M97.8,56.46H85.26c-2.52,0-4.58-2.06-4.58-4.58v0c0-2.52,2.06-4.58,4.58-4.58H97.8c2.52,0,4.58,2.06,4.58,4.58
	v0C102.38,54.4,100.32,56.46,97.8,56.46z"/>
<path class="st4" d="M47.97,13.61H30.27c-1.87,0-3.4-1.53-3.4-3.4v-0.09c0-1.87,1.53-3.4,3.4-3.4h17.71c1.87,0,3.4,1.53,3.4,3.4
	v0.09C51.38,12.08,49.84,13.61,47.97,13.61z"/>
<path class="st4" d="M76.51,13.61H58.8c-1.87,0-3.4-1.53-3.4-3.4v-0.09c0-1.87,1.53-3.4,3.4-3.4h17.71c1.87,0,3.4,1.53,3.4,3.4v0.09
	C79.91,12.08,78.38,13.61,76.51,13.61z"/>
<path class="st4" d="M105.05,13.61H87.34c-1.87,0-3.4-1.53-3.4-3.4v-0.09c0-1.87,1.53-3.4,3.4-3.4h17.71c1.87,0,3.4,1.53,3.4,3.4
	v0.09C108.45,12.08,106.92,13.61,105.05,13.61z"/>
<circle class="st5" cx="486.66" cy="10.21" r="3.68"/>
<circle class="st5" cx="475.86" cy="10.21" r="3.68"/>
<circle class="st5" cx="465.06" cy="10.21" r="3.68"/>
<circle class="st5" cx="454.26" cy="10.21" r="3.68"/>
<circle class="st5" cx="443.46" cy="10.21" r="3.68"/>
<circle class="st5" cx="432.66" cy="10.21" r="3.68"/>
<circle class="st6" cx="21.95" cy="44.98" r="1.33"/>
<circle class="st6" cx="21.95" cy="50.98" r="1.33"/>
<circle class="st6" cx="21.95" cy="56.98" r="1.33"/>
<path class="st7" d="M262.75,60.25c-0.01,0.18-0.17,0.31-0.35,0.29l-1.36-0.14c-3.64-0.37-7.29-0.56-10.94-0.56l-0.12,0
	c-3.66,0-7.31,0.19-10.95,0.56l-1.29,0.13c-0.18,0.02-0.33-0.11-0.35-0.29l-1.37-15.76c-0.02-0.25,0.24-0.42,0.46-0.31l7.71,3.87
	c0.13,0.07,0.29,0.03,0.39-0.08l5.19-6.42c0.13-0.16,0.37-0.16,0.49,0l5.19,6.42c0.09,0.12,0.25,0.15,0.39,0.08l7.69-3.86
	c0.22-0.11,0.48,0.06,0.46,0.31L262.75,60.25z M240.64,50.32l0.55,5.8c0.01,0.14,0.15,0.25,0.31,0.24c2.82-0.22,5.67-0.33,8.49-0.33
	c0.02,0,0.03,0,0.05,0c2.83,0,5.69,0.11,8.52,0.33c0.16,0.01,0.3-0.09,0.31-0.24l0.5-5.81c0.02-0.2-0.21-0.34-0.41-0.25l-4.49,2.06
	c-0.12,0.05-0.26,0.03-0.35-0.07l-3.91-4.42c-0.11-0.13-0.33-0.13-0.44,0l-3.91,4.42c-0.08,0.1-0.23,0.12-0.35,0.07l-4.46-2.05
	C240.85,49.97,240.62,50.11,240.64,50.32z"/>
<circle class="st8" cx="480.83" cy="52.11" r="10.6"/>
<circle class="st8" cx="455.52" cy="52.11" r="10.6"/>
<circle class="st8" cx="430.22" cy="52.5" r="10.6"/>
<circle class="st8" cx="404.91" cy="52.5" r="10.6"/>
</svg>
