<?xml version="1.0" encoding="utf-8"?>
<!-- Generator: Adobe Illustrator 23.0.0, SVG Export Plug-In . SVG Version: 6.00 Build 0)  -->
<svg version="1.1" id="Layer_1" xmlns="http://www.w3.org/2000/svg" xmlns:xlink="http://www.w3.org/1999/xlink" x="0px" y="0px"
	 viewBox="0 0 250 250" style="enable-background:new 0 0 250 250;" xml:space="preserve">
<style type="text/css">
	.st0{fill:#E9EAED;}
	.st1{fill:#FFFFFF;}
	.st2{fill:#EDF0F3;}
	.st3{fill:#A8B6C0;}
	.st4{opacity:0.64;fill:#EDF0F3;}
</style>
<rect class="st0" width="250" height="250"/>
<path class="st1" d="M228.17,204.41H21.83c-1.87,0-3.4-1.53-3.4-3.4V49.69c0-1.87,1.53-3.4,3.4-3.4h206.34c1.87,0,3.4,1.53,3.4,3.4
	v151.32C231.57,202.88,230.04,204.41,228.17,204.41z"/>
<path class="st2" d="M224.84,202.37H25.01c-1.87,0-3.4-1.53-3.4-3.4v-15.39c0-1.87,1.53-3.4,3.4-3.4h199.84c1.87,0,3.4,1.53,3.4,3.4
	v15.39C228.24,200.84,226.71,202.37,224.84,202.37z"/>
<path class="st3" d="M231.57,176.59H18.43V48.99c0-1.87,1.53-3.4,3.4-3.4h206.34c1.87,0,3.4,1.53,3.4,3.4V176.59z"/>
<path class="st2" d="M218.08,67.86h-22.47c-3.65,0-6.64-2.99-6.64-6.64v0c0-3.65,2.99-6.64,6.64-6.64h22.47
	c3.65,0,6.64,2.99,6.64,6.64v0C224.72,64.87,221.74,67.86,218.08,67.86z"/>
<path class="st2" d="M218.08,86.75h-15.66c-3.65,0-6.64-2.99-6.64-6.64v0c0-3.65,2.99-6.64,6.64-6.64h15.66
	c3.65,0,6.64,2.99,6.64,6.64v0C224.72,83.76,221.74,86.75,218.08,86.75z"/>
<circle class="st2" cx="216.55" cy="97.47" r="8.17"/>
<path class="st4" d="M79.31,159.94H26.88c-2.9,0-5.28-2.37-5.28-5.28v0c0-2.9,2.37-5.28,5.28-5.28h52.43c2.9,0,5.28,2.37,5.28,5.28
	v0C84.58,157.57,82.21,159.94,79.31,159.94z"/>
<path class="st4" d="M34.38,174.58h-7.17c-3.08,0-5.61-2.52-5.61-5.61v0c0-3.08,2.52-5.61,5.61-5.61h7.17
	c3.08,0,5.61,2.52,5.61,5.61v0C39.99,172.06,37.47,174.58,34.38,174.58z"/>
<path class="st1" d="M140.06,119.4c-0.01,0.18-0.17,0.31-0.35,0.29l-1.36-0.14c-3.64-0.37-7.29-0.56-10.94-0.56l-0.12,0
	c-3.66,0-7.31,0.19-10.95,0.56l-1.29,0.13c-0.18,0.02-0.33-0.11-0.35-0.29l-1.37-15.76c-0.02-0.25,0.24-0.42,0.46-0.31l7.71,3.87
	c0.13,0.07,0.29,0.03,0.39-0.08l5.19-6.42c0.13-0.16,0.37-0.16,0.49,0l5.19,6.42c0.09,0.12,0.25,0.15,0.39,0.08l7.69-3.86
	c0.22-0.11,0.48,0.06,0.46,0.31L140.06,119.4z M117.95,109.47l0.55,5.8c0.01,0.14,0.15,0.25,0.31,0.24
	c2.82-0.22,5.67-0.33,8.49-0.33c0.02,0,0.03,0,0.05,0c2.83,0,5.69,0.11,8.52,0.33c0.16,0.01,0.3-0.09,0.31-0.24l0.5-5.81
	c0.02-0.2-0.21-0.34-0.41-0.25l-4.49,2.06c-0.12,0.05-0.26,0.03-0.35-0.07l-3.91-4.42c-0.11-0.13-0.33-0.13-0.44,0l-3.91,4.42
	c-0.08,0.1-0.23,0.12-0.35,0.07l-4.46-2.05C118.16,109.13,117.93,109.27,117.95,109.47z"/>
</svg>
