<?xml version="1.0" encoding="utf-8"?>
<!-- Generator: Adobe Illustrator 23.0.0, SVG Export Plug-In . SVG Version: 6.00 Build 0)  -->
<svg version="1.1" id="Layer_1" xmlns="http://www.w3.org/2000/svg" xmlns:xlink="http://www.w3.org/1999/xlink" x="0px" y="0px"
	 viewBox="0 0 250 250" style="enable-background:new 0 0 250 250;" xml:space="preserve">
<style type="text/css">
	.st0{fill:#E9EAED;}
	.st1{fill:#A8B6C0;}
	.st2{opacity:0.29;fill:#EDF0F3;}
	.st3{fill:#FFFFFF;}
</style>
<rect class="st0" width="250" height="250"/>
<path class="st1" d="M228.17,183.49H21.83c-1.88,0-3.4-1.52-3.4-3.4V55.89c0-1.87,1.53-3.4,3.4-3.4h206.33c1.87,0,3.4,1.53,3.4,3.4
	v124.2C231.57,181.97,230.05,183.49,228.17,183.49z"/>
<path class="st2" d="M216.93,74.03h-22.47c-3.65,0-6.64-2.99-6.64-6.64v0c0-3.65,2.99-6.64,6.64-6.64h22.47
	c3.65,0,6.64,2.99,6.64,6.64v0C223.57,71.04,220.58,74.03,216.93,74.03z"/>
<path class="st2" d="M216.93,92.92h-15.66c-3.65,0-6.64-2.99-6.64-6.64v0c0-3.65,2.99-6.64,6.64-6.64h15.66
	c3.65,0,6.64,2.99,6.64,6.64v0C223.57,89.93,220.58,92.92,216.93,92.92z"/>
<circle class="st3" cx="23.71" cy="192.56" r="5.28"/>
<path class="st3" d="M60.58,197.83H36.64c-2.9,0-5.28-2.37-5.28-5.28v0c0-2.9,2.37-5.28,5.28-5.28h23.95c2.9,0,5.28,2.37,5.28,5.28
	v0C65.86,195.46,63.49,197.83,60.58,197.83z"/>
<path class="st3" d="M226.29,197.83h-52.43c-2.9,0-5.28-2.37-5.28-5.28v0c0-2.9,2.37-5.28,5.28-5.28h52.43
	c2.9,0,5.28,2.37,5.28,5.28v0C231.57,195.46,229.19,197.83,226.29,197.83z"/>
<path class="st3" d="M137.75,127.26c-0.01,0.18-0.17,0.31-0.35,0.29l-1.36-0.14c-3.64-0.37-7.29-0.56-10.94-0.56l-0.12,0
	c-3.66,0-7.31,0.19-10.95,0.56l-1.29,0.13c-0.18,0.02-0.33-0.11-0.35-0.29l-1.37-15.76c-0.02-0.25,0.24-0.42,0.46-0.31l7.71,3.87
	c0.13,0.07,0.29,0.03,0.39-0.08l5.19-6.42c0.13-0.16,0.37-0.16,0.49,0l5.19,6.42c0.09,0.12,0.25,0.15,0.39,0.08l7.69-3.86
	c0.22-0.11,0.48,0.06,0.46,0.31L137.75,127.26z M115.64,117.33l0.55,5.8c0.01,0.14,0.15,0.25,0.31,0.24
	c2.82-0.22,5.67-0.33,8.49-0.33c0.02,0,0.03,0,0.05,0c2.83,0,5.69,0.11,8.52,0.33c0.16,0.01,0.3-0.09,0.31-0.24l0.5-5.81
	c0.02-0.2-0.21-0.34-0.41-0.25l-4.49,2.06c-0.12,0.05-0.26,0.03-0.35-0.07l-3.91-4.42c-0.11-0.13-0.33-0.13-0.44,0l-3.91,4.42
	c-0.08,0.1-0.23,0.12-0.35,0.07l-4.46-2.05C115.85,116.98,115.62,117.13,115.64,117.33z"/>
</svg>
