<?xml version="1.0" encoding="utf-8"?>
<!-- Generator: Adobe Illustrator 23.0.0, SVG Export Plug-In . SVG Version: 6.00 Build 0)  -->
<svg version="1.1" id="Layer_1" xmlns="http://www.w3.org/2000/svg" xmlns:xlink="http://www.w3.org/1999/xlink" x="0px" y="0px"
	 viewBox="0 0 250 250" style="enable-background:new 0 0 250 250;" xml:space="preserve">
<style type="text/css">
	.st0{fill:#E9EAED;}
	.st1{fill:#FFFFFF;}
	.st2{fill:#EDF0F3;}
	.st3{fill:#A8B6C0;}
	.st4{opacity:0.5;fill:#FFFFFF;}
</style>
<rect class="st0" width="250" height="250"/>
<path class="st1" d="M232.72,208.34H17.28c-1.87,0-3.4-1.53-3.4-3.4V27.7c0-1.87,1.53-3.4,3.4-3.4h215.44c1.87,0,3.4,1.53,3.4,3.4
	v177.24C236.12,206.81,234.59,208.34,232.72,208.34z"/>
<path class="st2" d="M228.28,205.34H20.51c-1.87,0-3.4-1.53-3.4-3.4v-17.15c0-1.87,1.53-3.4,3.4-3.4h207.77c1.87,0,3.4,1.53,3.4,3.4
	v17.15C231.68,203.81,230.15,205.34,228.28,205.34z"/>
<path class="st3" d="M236.04,126.83H13.96V27.7c0-1.87,1.53-3.4,3.4-3.4h215.27c1.87,0,3.4,1.53,3.4,3.4V126.83z"/>
<path class="st4" d="M232.12,401.36H16.68c-1.87,0-3.4-1.53-3.4-3.4V220.72c0-1.87,1.53-3.4,3.4-3.4h215.44c1.87,0,3.4,1.53,3.4,3.4
	v177.24C235.52,399.83,233.99,401.36,232.12,401.36z"/>
<path class="st4" d="M232.72,12.88H17.28c-1.87,0-3.4-1.53-3.4-3.4v-177.24c0-1.87,1.53-3.4,3.4-3.4h215.44c1.87,0,3.4,1.53,3.4,3.4
	V9.48C236.12,11.35,234.59,12.88,232.72,12.88z"/>
<path class="st2" d="M222.64,45.17h-22.47c-3.65,0-6.64-2.99-6.64-6.64v0c0-3.65,2.99-6.64,6.64-6.64h22.47
	c3.65,0,6.64,2.99,6.64,6.64v0C229.28,42.18,226.29,45.17,222.64,45.17z"/>
<path class="st2" d="M222.64,62.53h-15.66c-3.65,0-6.64-2.99-6.64-6.64v0c0-3.65,2.99-6.64,6.64-6.64h15.66
	c3.65,0,6.64,2.99,6.64,6.64v0C229.28,59.54,226.29,62.53,222.64,62.53z"/>
<circle class="st2" cx="221.11" cy="74.79" r="8.17"/>
<path class="st2" d="M190.34,143.96H22.56c-2.9,0-5.28-2.37-5.28-5.28v0c0-2.9,2.37-5.28,5.28-5.28h167.78
	c2.9,0,5.28,2.37,5.28,5.28v0C195.61,141.58,193.24,143.96,190.34,143.96z"/>
<path class="st2" d="M130.42,159.96H22.56c-2.9,0-5.28-2.37-5.28-5.28v0c0-2.9,2.37-5.28,5.28-5.28h107.86
	c2.9,0,5.28,2.37,5.28,5.28v0C135.7,157.58,133.32,159.96,130.42,159.96z"/>
<path class="st2" d="M30.06,177.12h-7.17c-3.08,0-5.61-2.52-5.61-5.61v0c0-3.08,2.52-5.61,5.61-5.61h7.17
	c3.08,0,5.61,2.52,5.61,5.61v0C35.66,174.6,33.14,177.12,30.06,177.12z"/>
<path class="st1" d="M140.06,80.4c-0.01,0.18-0.17,0.31-0.35,0.29l-1.36-0.14c-3.64-0.37-7.29-0.56-10.94-0.56l-0.12,0
	c-3.66,0-7.31,0.19-10.95,0.56l-1.29,0.13c-0.18,0.02-0.33-0.11-0.35-0.29l-1.37-15.76c-0.02-0.25,0.24-0.42,0.46-0.31l7.71,3.87
	c0.13,0.07,0.29,0.03,0.39-0.08l5.19-6.42c0.13-0.16,0.37-0.16,0.49,0l5.19,6.42c0.09,0.12,0.25,0.15,0.39,0.08l7.69-3.86
	c0.22-0.11,0.48,0.06,0.46,0.31L140.06,80.4z M117.95,70.47l0.55,5.8c0.01,0.14,0.15,0.25,0.31,0.24c2.82-0.22,5.67-0.33,8.49-0.33
	c0.02,0,0.03,0,0.05,0c2.83,0,5.69,0.11,8.52,0.33c0.16,0.01,0.3-0.09,0.31-0.24l0.5-5.81c0.02-0.2-0.21-0.34-0.41-0.25l-4.49,2.06
	c-0.12,0.05-0.26,0.03-0.35-0.07l-3.91-4.42c-0.11-0.13-0.33-0.13-0.44,0l-3.91,4.42c-0.08,0.1-0.23,0.12-0.35,0.07l-4.46-2.05
	C118.17,70.12,117.93,70.27,117.95,70.47z"/>
</svg>
