<?xml version="1.0" encoding="utf-8"?>
<!-- Generator: Adobe Illustrator 23.0.0, SVG Export Plug-In . SVG Version: 6.00 Build 0)  -->
<svg version="1.1" id="Layer_1" xmlns="http://www.w3.org/2000/svg" xmlns:xlink="http://www.w3.org/1999/xlink" x="0px" y="0px"
	 viewBox="0 0 250 250" style="enable-background:new 0 0 250 250;" xml:space="preserve">
<style type="text/css">
	.st0{fill:#E9EAED;}
	.st1{fill:#A8B6C0;}
	.st2{opacity:0.8;fill:#A8B6C0;}
	.st3{opacity:0.4;fill:#A8B6C0;}
	.st4{opacity:0.6;fill:#A8B6C0;}
	.st5{fill:#FFFFFF;}
	.st6{opacity:0.61;fill:#EDF0F3;}
</style>
<rect class="st0" width="250" height="250"/>
<rect x="100" y="50" class="st1" width="150" height="100"/>
<rect y="50" class="st2" width="100" height="50"/>
<rect x="100" y="150" class="st2" width="100" height="50"/>
<rect x="200" y="150" class="st3" width="50" height="50"/>
<rect y="100" class="st4" width="100" height="100"/>
<path class="st5" d="M118.29,143.82c-0.01,0.07-0.07,0.12-0.13,0.11l-0.53-0.05c-1.41-0.15-2.83-0.22-4.25-0.22l-0.05,0
	c-1.42,0-2.84,0.07-4.25,0.22l-0.5,0.05c-0.07,0.01-0.13-0.04-0.13-0.11l-0.53-6.12c-0.01-0.1,0.09-0.16,0.18-0.12l2.99,1.5
	c0.05,0.03,0.11,0.01,0.15-0.03l2.02-2.49c0.05-0.06,0.14-0.06,0.19,0l2.02,2.49c0.04,0.04,0.1,0.06,0.15,0.03l2.98-1.5
	c0.09-0.04,0.18,0.02,0.18,0.12L118.29,143.82z M109.71,139.96l0.21,2.25c0.01,0.06,0.06,0.1,0.12,0.09c1.09-0.09,2.2-0.13,3.3-0.13
	c0.01,0,0.01,0,0.02,0c1.1,0,2.21,0.04,3.31,0.13c0.06,0,0.11-0.04,0.12-0.09l0.19-2.25c0.01-0.08-0.08-0.13-0.16-0.1l-1.74,0.8
	c-0.05,0.02-0.1,0.01-0.14-0.03l-1.52-1.72c-0.04-0.05-0.13-0.05-0.17,0l-1.52,1.72c-0.03,0.04-0.09,0.05-0.14,0.03l-1.73-0.79
	C109.8,139.83,109.71,139.89,109.71,139.96z"/>
<path class="st6" d="M191.72,106.43h-20.74c-1.31,0-2.38-1.07-2.38-2.38v0c0-1.31,1.07-2.38,2.38-2.38h20.74
	c1.31,0,2.38,1.07,2.38,2.38v0C194.1,105.36,193.03,106.43,191.72,106.43z"/>
<path class="st6" d="M202.72,96.49h-42.75c-1.87,0-3.4-1.53-3.4-3.4v0c0-1.87,1.53-3.4,3.4-3.4h42.75c1.87,0,3.4,1.53,3.4,3.4v0
	C206.12,94.96,204.59,96.49,202.72,96.49z"/>
<path class="st6" d="M54.72,81.43H33.97c-1.31,0-2.38-1.07-2.38-2.38v0c0-1.31,1.07-2.38,2.38-2.38h20.74
	c1.31,0,2.38,1.07,2.38,2.38v0C57.1,80.36,56.03,81.43,54.72,81.43z"/>
<path class="st6" d="M65.72,71.49H22.97c-1.87,0-3.4-1.53-3.4-3.4v0c0-1.87,1.53-3.4,3.4-3.4h42.75c1.87,0,3.4,1.53,3.4,3.4v0
	C69.12,69.96,67.59,71.49,65.72,71.49z"/>
<path class="st6" d="M59.72,156.43H38.97c-1.31,0-2.38-1.07-2.38-2.38l0,0c0-1.31,1.07-2.38,2.38-2.38h20.74
	c1.31,0,2.38,1.07,2.38,2.38l0,0C62.1,155.36,61.03,156.43,59.72,156.43z"/>
<path class="st6" d="M70.72,146.49H27.97c-1.87,0-3.4-1.53-3.4-3.4l0,0c0-1.87,1.53-3.4,3.4-3.4h42.75c1.87,0,3.4,1.53,3.4,3.4l0,0
	C74.12,144.96,72.59,146.49,70.72,146.49z"/>
<path class="st6" d="M160.72,185.43h-20.74c-1.31,0-2.38-1.07-2.38-2.38l0,0c0-1.31,1.07-2.38,2.38-2.38h20.74
	c1.31,0,2.38,1.07,2.38,2.38l0,0C163.1,184.36,162.03,185.43,160.72,185.43z"/>
<path class="st6" d="M235.08,175h-19.08c-1.74,0-3.17-1.42-3.17-3.17v0c0-1.74,1.42-3.17,3.17-3.17h19.08
	c1.74,0,3.17,1.42,3.17,3.17v0C238.25,173.58,236.83,175,235.08,175z"/>
<path class="st6" d="M232.37,185.43h-13.64c-1.31,0-2.38-1.07-2.38-2.38l0,0c0-1.31,1.07-2.38,2.38-2.38h13.64
	c1.31,0,2.38,1.07,2.38,2.38l0,0C234.75,184.36,233.68,185.43,232.37,185.43z"/>
<path class="st6" d="M171.72,175.49h-42.75c-1.87,0-3.4-1.53-3.4-3.4l0,0c0-1.87,1.53-3.4,3.4-3.4h42.75c1.87,0,3.4,1.53,3.4,3.4
	l0,0C175.12,173.96,173.59,175.49,171.72,175.49z"/>
</svg>
