<?xml version="1.0" encoding="utf-8"?>
<!-- Generator: Adobe Illustrator 23.0.0, SVG Export Plug-In . SVG Version: 6.00 Build 0)  -->
<svg version="1.1" id="Layer_1" xmlns="http://www.w3.org/2000/svg" xmlns:xlink="http://www.w3.org/1999/xlink" x="0px" y="0px"
	 viewBox="0 0 250 250" style="enable-background:new 0 0 250 250;" xml:space="preserve">
<style type="text/css">
	.st0{fill:#E9EAED;}
	.st1{fill:#FFFFFF;}
	.st2{fill:#A8B6C0;}
	.st3{opacity:0.38;fill:#EDF0F3;}
	.st4{fill:#EDF0F3;}
	.st5{opacity:0.52;fill:#EDF0F3;}
</style>
<rect class="st0" width="250" height="250"/>
<path class="st1" d="M209.58,231.77H40.02c-1.87,0-3.4-1.53-3.4-3.4V20.7c0-1.87,1.53-3.4,3.4-3.4h169.56c1.87,0,3.4,1.53,3.4,3.4
	v207.66C212.98,230.24,211.45,231.77,209.58,231.77z"/>
<rect x="36.62" y="39.14" class="st2" width="176.36" height="168.18"/>
<path class="st3" d="M207.06,59.98h-31.74c-1.1,0-2-0.9-2-2V48.7c0-1.1,0.9-2,2-2h31.74c1.1,0,2,0.9,2,2v9.28
	C209.06,59.08,208.16,59.98,207.06,59.98z"/>
<path class="st4" d="M100.32,224.4H47.89c-2.9,0-5.28-2.37-5.28-5.28v0c0-2.9,2.37-5.28,5.28-5.28h52.43c2.9,0,5.28,2.37,5.28,5.28
	v0C105.59,222.03,103.22,224.4,100.32,224.4z"/>
<path class="st5" d="M161.72,202.62H47.89c-2.9,0-5.28-2.37-5.28-5.28l0,0c0-2.9,2.37-5.28,5.28-5.28h113.83
	c2.9,0,5.28,2.37,5.28,5.28l0,0C167,200.24,164.63,202.62,161.72,202.62z"/>
<path class="st1" d="M137.55,132.49c-0.01,0.18-0.17,0.31-0.35,0.29l-1.36-0.14c-3.64-0.37-7.29-0.56-10.94-0.56l-0.12,0
	c-3.66,0-7.31,0.19-10.95,0.56l-1.29,0.13c-0.18,0.02-0.33-0.11-0.35-0.29l-1.37-15.76c-0.02-0.25,0.24-0.42,0.46-0.31l7.71,3.87
	c0.13,0.07,0.29,0.03,0.39-0.08l5.19-6.42c0.13-0.16,0.37-0.16,0.49,0l5.19,6.42c0.09,0.12,0.25,0.15,0.39,0.08l7.69-3.86
	c0.22-0.11,0.48,0.06,0.46,0.31L137.55,132.49z M115.44,122.57l0.55,5.8c0.01,0.14,0.15,0.25,0.31,0.24
	c2.82-0.22,5.67-0.33,8.49-0.33c0.02,0,0.03,0,0.05,0c2.83,0,5.69,0.11,8.52,0.33c0.16,0.01,0.3-0.09,0.31-0.24l0.5-5.81
	c0.02-0.2-0.21-0.34-0.41-0.25l-4.49,2.06c-0.12,0.05-0.26,0.03-0.35-0.07l-3.91-4.42c-0.11-0.13-0.33-0.13-0.44,0l-3.91,4.42
	c-0.08,0.1-0.23,0.12-0.35,0.07l-4.46-2.05C115.65,122.22,115.42,122.36,115.44,122.57z"/>
<circle class="st4" cx="50.02" cy="28.95" r="7.4"/>
<path class="st4" d="M80.53,32.52H63.17c-1.87,0-3.4-1.53-3.4-3.4v-0.35c0-1.87,1.53-3.4,3.4-3.4h17.37c1.87,0,3.4,1.53,3.4,3.4
	v0.35C83.94,30.99,82.41,32.52,80.53,32.52z"/>
<path class="st4" d="M207.17,32.52h-40.52c-1.87,0-3.4-1.53-3.4-3.4v-0.35c0-1.87,1.53-3.4,3.4-3.4h40.52c1.87,0,3.4,1.53,3.4,3.4
	v0.35C210.57,30.99,209.04,32.52,207.17,32.52z"/>
</svg>
