<?xml version="1.0" encoding="utf-8"?>
<!-- Generator: Adobe Illustrator 23.0.0, SVG Export Plug-In . SVG Version: 6.00 Build 0)  -->
<svg version="1.1" id="Layer_1" xmlns="http://www.w3.org/2000/svg" xmlns:xlink="http://www.w3.org/1999/xlink" x="0px" y="0px"
	 viewBox="0 0 250 250" style="enable-background:new 0 0 250 250;" xml:space="preserve">
<style type="text/css">
	.st0{fill:#E9EAED;}
	.st1{fill:#FFFFFF;}
	.st2{fill:#EDF0F3;}
	.st3{fill:#A8B6C0;}
</style>
<rect class="st0" width="250" height="250"/>
<path class="st1" d="M213.32,222.7H38c-1.87,0-3.4-1.53-3.4-3.4V30.7c0-1.87,1.53-3.4,3.4-3.4h175.32c1.87,0,3.4,1.53,3.4,3.4v188.6
	C216.72,221.17,215.19,222.7,213.32,222.7z"/>
<path class="st2" d="M209.58,220.32H41.4c-1.87,0-3.4-1.53-3.4-3.4v-20.09c0-1.87,1.53-3.4,3.4-3.4h168.18c1.87,0,3.4,1.53,3.4,3.4
	v20.09C212.98,218.79,211.45,220.32,209.58,220.32z"/>
<path class="st3" d="M216.72,145.09H34.6V30.7c0-1.87,1.53-3.4,3.4-3.4h175.32c1.87,0,3.4,1.53,3.4,3.4V145.09z"/>
<path class="st2" d="M204.3,46.7h-22.47c-3.65,0-6.64-2.99-6.64-6.64v0c0-3.65,2.99-6.64,6.64-6.64h22.47
	c3.65,0,6.64,2.99,6.64,6.64v0C210.94,43.71,207.95,46.7,204.3,46.7z"/>
<path class="st2" d="M204.3,64.06h-15.66c-3.65,0-6.64-2.99-6.64-6.64v0c0-3.65,2.99-6.64,6.64-6.64h15.66
	c3.65,0,6.64,2.99,6.64,6.64v0C210.94,61.08,207.95,64.06,204.3,64.06z"/>
<circle class="st2" cx="202.77" cy="76.32" r="8.17"/>
<path class="st2" d="M95.7,165.85H43.28c-2.9,0-5.28-2.37-5.28-5.28v0c0-2.9,2.37-5.28,5.28-5.28H95.7c2.9,0,5.28,2.37,5.28,5.28v0
	C100.98,163.48,98.6,165.85,95.7,165.85z"/>
<path class="st2" d="M50.78,188.66h-7.17c-3.08,0-5.61-2.52-5.61-5.61l0,0c0-3.08,2.52-5.61,5.61-5.61h7.17
	c3.08,0,5.61,2.52,5.61,5.61l0,0C56.38,186.14,53.86,188.66,50.78,188.66z"/>
<path class="st1" d="M136.56,95.46c-0.01,0.18-0.17,0.31-0.35,0.29l-1.36-0.14c-3.64-0.37-7.29-0.56-10.94-0.56l-0.12,0
	c-3.66,0-7.31,0.19-10.95,0.56l-1.29,0.13c-0.18,0.02-0.33-0.11-0.35-0.29l-1.37-15.76c-0.02-0.25,0.24-0.42,0.46-0.31l7.71,3.87
	c0.13,0.07,0.29,0.03,0.39-0.08l5.19-6.42c0.13-0.16,0.37-0.16,0.49,0l5.19,6.42c0.09,0.12,0.25,0.15,0.39,0.08l7.69-3.86
	c0.22-0.11,0.48,0.06,0.46,0.31L136.56,95.46z M114.45,85.53l0.55,5.8c0.01,0.14,0.15,0.25,0.31,0.24c2.82-0.22,5.67-0.33,8.49-0.33
	c0.02,0,0.03,0,0.05,0c2.83,0,5.69,0.11,8.52,0.33c0.16,0.01,0.3-0.09,0.31-0.24l0.5-5.81c0.02-0.2-0.21-0.34-0.41-0.25l-4.49,2.06
	c-0.12,0.05-0.26,0.03-0.35-0.07l-3.91-4.42c-0.11-0.13-0.33-0.13-0.44,0l-3.91,4.42c-0.08,0.1-0.23,0.12-0.35,0.07l-4.46-2.05
	C114.66,85.18,114.43,85.33,114.45,85.53z"/>
</svg>
