<?xml version="1.0" encoding="utf-8"?>
<!-- Generator: Adobe Illustrator 23.0.0, SVG Export Plug-In . SVG Version: 6.00 Build 0)  -->
<svg version="1.1" id="Layer_1" xmlns="http://www.w3.org/2000/svg" xmlns:xlink="http://www.w3.org/1999/xlink" x="0px" y="0px"
	 viewBox="0 0 250 250" style="enable-background:new 0 0 250 250;" xml:space="preserve">
<style type="text/css">
	.st0{fill:#E9EAED;}
	.st1{fill:#A8B6C0;}
	.st2{opacity:0.5;fill:#A8B6C0;}
	.st3{opacity:0.76;fill:#EDF0F3;}
	.st4{opacity:0.49;fill:#EDF0F3;}
	.st5{fill:#FFFFFF;}
	.st6{fill:#E6E7E8;}
</style>
<rect class="st0" width="250" height="250"/>
<path class="st1" d="M185.91,235.51H60.26c-3.79,0-6.86-3.07-6.86-6.86V26.92c0-5.65,4.62-10.27,10.27-10.27h118.85
	c5.65,0,10.27,4.62,10.27,10.27v201.73C192.77,232.44,189.7,235.51,185.91,235.51z"/>
<path class="st2" d="M43.27,235.51H-82.38c-3.79,0-6.86-3.07-6.86-6.86V26.92c0-5.65,4.62-10.27,10.27-10.27H39.87
	c5.65,0,10.27,4.62,10.27,10.27v201.73C50.14,232.44,47.06,235.51,43.27,235.51z"/>
<path class="st2" d="M327.87,235.51H202.22c-3.79,0-6.86-3.07-6.86-6.86V26.92c0-5.65,4.62-10.27,10.27-10.27h118.85
	c5.65,0,10.27,4.62,10.27,10.27v201.73C334.73,232.44,331.66,235.51,327.87,235.51z"/>
<path class="st3" d="M177.26,36.27h-18.56c-3.02,0-5.48-2.47-5.48-5.48v0c0-3.02,2.47-5.48,5.48-5.48h18.56
	c3.02,0,5.48,2.47,5.48,5.48v0C182.75,33.8,180.28,36.27,177.26,36.27z"/>
<path class="st4" d="M183.75,233.47H62.22c-3.65,0-6.64-2.99-6.64-6.64v-44.26c0-3.65,2.99-6.64,6.64-6.64h121.53
	c3.65,0,6.64,2.99,6.64,6.64v44.26C190.39,230.48,187.4,233.47,183.75,233.47z"/>
<path class="st3" d="M177.26,51.87h-12.93c-3.02,0-5.48-2.47-5.48-5.48v0c0-3.02,2.47-5.48,5.48-5.48h12.93
	c3.02,0,5.48,2.47,5.48,5.48v0C182.75,49.41,180.28,51.87,177.26,51.87z"/>
<circle class="st3" cx="176" cy="63.26" r="6.75"/>
<path class="st5" d="M132.47,119.4c-0.01,0.18-0.17,0.31-0.35,0.29l-1.36-0.14c-3.64-0.37-7.29-0.56-10.94-0.56l-0.12,0
	c-3.66,0-7.31,0.19-10.95,0.56l-1.29,0.13c-0.18,0.02-0.33-0.11-0.35-0.29l-1.37-15.76c-0.02-0.25,0.24-0.42,0.46-0.31l7.71,3.87
	c0.13,0.07,0.29,0.03,0.39-0.08l5.19-6.42c0.13-0.16,0.37-0.16,0.49,0l5.19,6.42c0.09,0.12,0.25,0.15,0.39,0.08l7.69-3.86
	c0.22-0.11,0.48,0.06,0.46,0.31L132.47,119.4z M110.36,109.47l0.55,5.8c0.01,0.14,0.15,0.25,0.31,0.24
	c2.82-0.22,5.67-0.33,8.49-0.33c0.02,0,0.03,0,0.05,0c2.83,0,5.69,0.11,8.52,0.33c0.16,0.01,0.3-0.09,0.31-0.24l0.5-5.81
	c0.02-0.2-0.21-0.34-0.41-0.25l-4.49,2.06c-0.12,0.05-0.26,0.03-0.35-0.07l-3.91-4.42c-0.11-0.13-0.33-0.13-0.44,0l-3.91,4.42
	c-0.08,0.1-0.23,0.12-0.35,0.07l-4.46-2.05C110.57,109.13,110.34,109.27,110.36,109.47z"/>
<path class="st6" d="M143.58,193.3H65.16c-2.34,0-4.26-1.91-4.26-4.26v0c0-2.34,1.91-4.26,4.26-4.26h78.43
	c2.34,0,4.26,1.91,4.26,4.26v0C147.84,191.38,145.92,193.3,143.58,193.3z"/>
<path class="st6" d="M116.32,225.3H64.31c-1.87,0-3.4-1.53-3.4-3.4l0,0c0-1.87,1.53-3.4,3.4-3.4h52.01c1.87,0,3.4,1.53,3.4,3.4l0,0
	C119.72,223.77,118.19,225.3,116.32,225.3z"/>
<path class="st6" d="M180.79,225.3h-32.61c-1.87,0-3.4-1.53-3.4-3.4l0,0c0-1.87,1.53-3.4,3.4-3.4h32.61c1.87,0,3.4,1.53,3.4,3.4l0,0
	C184.19,223.77,182.66,225.3,180.79,225.3z"/>
<path class="st6" d="M79.63,207.6H64.31c-1.87,0-3.4-1.53-3.4-3.4v0c0-1.87,1.53-3.4,3.4-3.4h15.32c1.87,0,3.4,1.53,3.4,3.4v0
	C83.03,206.06,81.5,207.6,79.63,207.6z"/>
<path class="st6" d="M111.75,207.6H88.82c-1.87,0-3.4-1.53-3.4-3.4v0c0-1.87,1.53-3.4,3.4-3.4h22.94c1.87,0,3.4,1.53,3.4,3.4v0
	C115.16,206.06,113.63,207.6,111.75,207.6z"/>
</svg>
