<?xml version="1.0" encoding="utf-8"?>
<!-- Generator: Adobe Illustrator 23.0.0, SVG Export Plug-In . SVG Version: 6.00 Build 0)  -->
<svg version="1.1" id="Layer_1" xmlns="http://www.w3.org/2000/svg" xmlns:xlink="http://www.w3.org/1999/xlink" x="0px" y="0px"
	 viewBox="0 0 250 250" style="enable-background:new 0 0 250 250;" xml:space="preserve">
<style type="text/css">
	.st0{fill:#E9EAED;}
	.st1{fill:#FFFFFF;}
	.st2{opacity:0.55;fill:#FFFFFF;}
	.st3{fill:#EDF0F3;}
	.st4{fill:#A8B6C0;}
</style>
<rect class="st0" width="250" height="250"/>
<path class="st1" d="M175.02,214.4H66.68c-5.5,0-10-4.5-10-10V19.13c0-5.5,4.5-10,10-10h108.34c5.5,0,10,4.5,10,10V204.4
	C185.02,209.9,180.52,214.4,175.02,214.4z"/>
<path class="st2" d="M312.57,230.74H204.23c-5.5,0-10-4.5-10-10V19.13c0-5.5,4.5-10,10-10h108.34c5.5,0,10,4.5,10,10v201.62
	C322.57,226.24,318.07,230.74,312.57,230.74z"/>
<path class="st2" d="M175.02,444.47H66.68c-5.5,0-10-4.5-10-10V232.85c0-5.5,4.5-10,10-10h108.34c5.5,0,10,4.5,10,10v201.62
	C185.02,439.97,180.52,444.47,175.02,444.47z"/>
<path class="st2" d="M38.17,244.02H-70.17c-5.5,0-10-4.5-10-10V19.13c0-5.5,4.5-10,10-10H38.17c5.5,0,10,4.5,10,10v214.89
	C48.17,239.52,43.67,244.02,38.17,244.02z"/>
<path class="st3" d="M174.18,206.36H63.9c-1.87,0-3.4-1.53-3.4-3.4v-6.6c0-1.87,1.53-3.4,3.4-3.4h110.29c1.87,0,3.4,1.53,3.4,3.4
	v6.6C177.58,204.83,176.05,206.36,174.18,206.36z"/>
<path class="st4" d="M184.97,133.04H56.73V19.13c0-5.5,4.5-10,10-10h108.24c5.5,0,10,4.5,10,10V133.04z"/>
<path class="st3" d="M139.57,150.05h-73.8c-2.9,0-5.28-2.37-5.28-5.28v0c0-2.9,2.37-5.28,5.28-5.28h73.8c2.9,0,5.28,2.37,5.28,5.28
	v0C144.85,147.68,142.48,150.05,139.57,150.05z"/>
<path class="st3" d="M111.23,166.05H65.77c-2.9,0-5.28-2.37-5.28-5.28v0c0-2.9,2.37-5.28,5.28-5.28h45.46c2.9,0,5.28,2.37,5.28,5.28
	v0C116.51,163.68,114.13,166.05,111.23,166.05z"/>
<path class="st3" d="M73.27,182.71H66.1c-3.08,0-5.61-2.52-5.61-5.61v0c0-3.08,2.52-5.61,5.61-5.61h7.17c3.08,0,5.61,2.52,5.61,5.61
	v0C78.88,180.19,76.35,182.71,73.27,182.71z"/>
<path class="st1" d="M131.79,78.61c-0.01,0.18-0.17,0.31-0.35,0.29l-1.36-0.14c-3.64-0.37-7.29-0.56-10.94-0.56l-0.12,0
	c-3.66,0-7.31,0.19-10.95,0.56l-1.29,0.13c-0.18,0.02-0.33-0.11-0.35-0.29l-1.37-15.76c-0.02-0.25,0.24-0.42,0.46-0.31l7.71,3.87
	c0.13,0.07,0.29,0.03,0.39-0.08l5.19-6.42c0.13-0.16,0.37-0.16,0.49,0l5.19,6.42c0.09,0.12,0.25,0.15,0.39,0.08l7.69-3.86
	c0.22-0.11,0.48,0.06,0.46,0.31L131.79,78.61z M109.68,68.68l0.55,5.8c0.01,0.14,0.15,0.25,0.31,0.24c2.82-0.22,5.67-0.33,8.49-0.33
	c0.02,0,0.03,0,0.05,0c2.83,0,5.69,0.11,8.52,0.33c0.16,0.01,0.3-0.09,0.31-0.24l0.5-5.81c0.02-0.2-0.21-0.34-0.41-0.25l-4.49,2.06
	c-0.12,0.05-0.26,0.03-0.35-0.07l-3.91-4.42c-0.11-0.13-0.33-0.13-0.44,0l-3.91,4.42c-0.08,0.1-0.23,0.12-0.35,0.07l-4.46-2.05
	C109.89,68.33,109.66,68.48,109.68,68.68z"/>
<path class="st3" d="M173.56,28.36h-17.22c-2.53,0-4.6-2.07-4.6-4.6v0c0-2.53,2.07-4.6,4.6-4.6h17.22c2.53,0,4.6,2.07,4.6,4.6v0
	C178.15,26.29,176.08,28.36,173.56,28.36z"/>
<path class="st3" d="M173.56,40.62h-6.41c-2.53,0-4.6-2.07-4.6-4.6v0c0-2.53,2.07-4.6,4.6-4.6h6.41c2.53,0,4.6,2.07,4.6,4.6v0
	C178.15,38.55,176.08,40.62,173.56,40.62z"/>
</svg>
